<svg width="40" height="40" viewBox="0 0 40 40" fill="none" xmlns="http://www.w3.org/2000/svg">
<path d="M35.7455 13.6667C35.8327 15.417 35.8327 17.4991 35.8327 20.0001C35.8327 27.4639 35.8327 31.1959 33.514 33.5147C31.1952 35.8334 27.4632 35.8334 19.9993 35.8334C12.5354 35.8334 8.8035 35.8334 6.48475 33.5147C4.16602 31.1959 4.16602 27.4639 4.16602 20.0001C4.16602 12.5362 4.16602 8.80423 6.48475 6.48548C8.8035 4.16675 12.5354 4.16675 19.9993 4.16675C21.7858 4.16675 23.3587 4.16675 24.7493 4.19855" stroke="white" stroke-width="2.5" stroke-linecap="round"/>
<path d="M13.334 19.1667C13.334 19.1667 15.834 19.1667 19.1673 25.0001C19.1673 25.0001 27.5987 9.7223 35.834 6.66675" stroke="white" stroke-width="2.5" stroke-linecap="round" stroke-linejoin="round"/>
</svg>
