<svg width="40" height="40" viewBox="0 0 40 40" fill="none" xmlns="http://www.w3.org/2000/svg">
<path d="M24.8772 4.85163L13.7892 10.1741C12.9359 10.5837 12.0241 10.6864 11.0946 10.4781C10.4863 10.3419 10.1821 10.2737 9.93717 10.2458C6.89572 9.89845 5 12.3056 5 15.0737V16.5928C5 19.3609 6.89572 21.7681 9.93717 21.4207C10.1821 21.3927 10.4863 21.3246 11.0946 21.1884C12.0241 20.9801 12.9359 21.0828 13.7892 21.4924L24.8772 26.8149C27.4223 28.0368 28.695 28.6476 30.114 28.1714C31.5328 27.6953 32.0198 26.6734 32.994 24.6299C35.6687 19.0186 35.6687 12.648 32.994 7.03652C32.0198 4.99302 31.5328 3.97127 30.114 3.49508C28.695 3.01892 27.4223 3.62982 24.8772 4.85163Z" stroke="white" stroke-width="2.5" stroke-linecap="round" stroke-linejoin="round"/>
<path d="M19.0972 34.6182L16.6116 36.6667C11.0089 32.2232 11.6934 30.1042 11.6934 21.6667H13.5831C14.35 26.4349 16.1589 28.6934 18.6548 30.3284C20.1923 31.3354 20.5093 33.4542 19.0972 34.6182Z" stroke="white" stroke-width="2.5" stroke-linecap="round" stroke-linejoin="round"/>
<path d="M12.5 20.8333V10.8333" stroke="white" stroke-width="2.5" stroke-linecap="round" stroke-linejoin="round"/>
</svg>
