<svg width="40" height="40" viewBox="0 0 40 40" fill="none" xmlns="http://www.w3.org/2000/svg">
<path d="M4.16699 20.0001C4.16699 12.5362 4.16699 8.80423 6.48573 6.48548C8.80448 4.16675 12.5364 4.16675 20.0003 4.16675C27.4642 4.16675 31.1962 4.16675 33.515 6.48548C35.8337 8.80423 35.8337 12.5362 35.8337 20.0001C35.8337 27.4639 35.8337 31.1959 33.515 33.5147C31.1962 35.8334 27.4642 35.8334 20.0003 35.8334C12.5364 35.8334 8.80448 35.8334 6.48573 33.5147C4.16699 31.1959 4.16699 27.4639 4.16699 20.0001Z" stroke="white" stroke-width="2.5"/>
<path d="M4.16699 15H12.0837M35.8337 15H27.917" stroke="white" stroke-width="2.5"/>
<path d="M25.0003 11.6667H15.0003C13.1594 11.6667 11.667 13.1591 11.667 15.0001C11.667 16.841 13.1594 18.3334 15.0003 18.3334H25.0003C26.8413 18.3334 28.3337 16.841 28.3337 15.0001C28.3337 13.1591 26.8413 11.6667 25.0003 11.6667Z" stroke="white" stroke-width="2.5"/>
</svg>
