<svg width="40" height="40" viewBox="0 0 40 40" fill="none" xmlns="http://www.w3.org/2000/svg">
<path d="M34.9968 21.6666C35.0006 20.8831 35.0007 20.0511 35.0007 19.1666C35.0007 11.7027 35.0007 7.97074 32.682 5.65199C30.3632 3.33325 26.6312 3.33325 19.1673 3.33325C11.7034 3.33325 7.97147 3.33325 5.65272 5.65199C3.33398 7.97074 3.33398 11.7027 3.33398 19.1666C3.33398 26.6304 3.33398 30.3624 5.65272 32.6813C7.97147 34.9999 11.7034 34.9999 19.1673 34.9999C20.0518 34.9999 20.8838 34.9999 21.6673 34.9961" stroke="white" stroke-width="2.5" stroke-linecap="round"/>
<path d="M30.8333 25L31.2632 26.1617C31.8268 27.685 32.1087 28.4467 32.6643 29.0023C33.22 29.558 33.9817 29.8398 35.505 30.4035L36.6667 30.8333L35.505 31.2632C33.9817 31.8268 33.22 32.1087 32.6643 32.6643C32.1087 33.22 31.8268 33.9817 31.2632 35.505L30.8333 36.6667L30.4035 35.505C29.8398 33.9817 29.558 33.22 29.0023 32.6643C28.4467 32.1087 27.685 31.8268 26.1617 31.2632L25 30.8333L26.1617 30.4035C27.685 29.8398 28.4467 29.558 29.0023 29.0023C29.558 28.4467 29.8398 27.685 30.4035 26.1617L30.8333 25Z" stroke="white" stroke-width="2.5" stroke-linejoin="round"/>
<path d="M3.33398 15H35.0007" stroke="white" stroke-width="2.5" stroke-linejoin="round"/>
<path d="M10.834 9.16675H10.849" stroke="white" stroke-width="3.33333" stroke-linecap="round" stroke-linejoin="round"/>
<path d="M17.5 9.16675H17.515" stroke="white" stroke-width="3.33333" stroke-linecap="round" stroke-linejoin="round"/>
</svg>
