<svg width="40" height="40" viewBox="0 0 40 40" fill="none" xmlns="http://www.w3.org/2000/svg">
<path d="M7.1967 32.8033C5 30.6067 5 27.071 5 20C5 12.9289 5 9.3934 7.1967 7.1967C9.3934 5 12.9289 5 20 5C27.071 5 30.6067 5 32.8033 7.1967C35 9.3934 35 12.9289 35 20C35 27.071 35 30.6067 32.8033 32.8033C30.6067 35 27.071 35 20 35C12.9289 35 9.3934 35 7.1967 32.8033Z" stroke="white" stroke-width="2.5" stroke-linecap="round" stroke-linejoin="round"/>
<path d="M11.666 23.3334L16.3208 18.6786C16.9717 18.0277 18.027 18.0277 18.6778 18.6786L21.3208 21.3216C21.9717 21.9724 23.027 21.9724 23.6778 21.3216L28.3327 16.6667" stroke="white" stroke-width="2.5" stroke-linecap="round" stroke-linejoin="round"/>
</svg>
