<svg width="40" height="40" viewBox="0 0 40 40" fill="none" xmlns="http://www.w3.org/2000/svg">
<path d="M7.1967 32.8033C5 30.6067 5 27.071 5 20C5 12.9289 5 9.3934 7.1967 7.1967C9.3934 5 12.9289 5 20 5C27.071 5 30.6067 5 32.8033 7.1967C35 9.3934 35 12.9289 35 20C35 27.071 35 30.6067 32.8033 32.8033C30.6067 35 27.071 35 20 35C12.9289 35 9.3934 35 7.1967 32.8033Z" stroke="white" stroke-width="2.5" stroke-linecap="round" stroke-linejoin="round"/>
<path d="M10 19.9999H14.1667L17.5 13.3333L22.5 26.6666L25.8333 19.9999H30" stroke="white" stroke-width="2.5" stroke-linecap="round" stroke-linejoin="round"/>
</svg>
