<svg width="154" height="40" viewBox="0 0 154 40" fill="none" xmlns="http://www.w3.org/2000/svg">
<path d="M4.54377 18.1128C10.9799 17.3116 16.0811 12.2104 16.8823 5.7744C17.0035 4.8 17.7875 4 18.7695 4C19.7515 4 20.5355 4.8 20.6567 5.7744C21.4579 12.2104 26.5591 17.3116 32.9951 18.1128C33.9695 18.234 34.7695 19.018 34.7695 20C34.7695 20.982 33.9695 21.766 32.9951 21.8872C26.5591 22.6884 21.4579 27.7896 20.6567 34.2256C20.5355 35.2 19.7515 36 18.7695 36C17.7875 36 17.0035 35.2 16.8823 34.2256C16.0811 27.7896 10.9799 22.6884 4.54377 21.8872C3.56945 21.766 2.76953 20.982 2.76953 20C2.76953 19.018 3.56945 18.234 4.54377 18.1128Z" fill="#EC6F10" stroke="#EC6F10" stroke-width="5.53846" stroke-linecap="round" stroke-linejoin="round"/>
<path d="M56.957 32.375C54.1654 32.375 51.9622 31.6719 50.3477 30.2656C48.7435 28.849 47.9414 26.9115 47.9414 24.4531H51.4102C51.4206 25.9844 51.9102 27.1823 52.8789 28.0469C53.8581 28.9115 55.2174 29.3438 56.957 29.3438C58.5404 29.3438 59.806 29.0104 60.7539 28.3438C61.7122 27.6667 62.1914 26.7604 62.1914 25.625C62.1914 24.7292 61.8477 24.0052 61.1602 23.4531C60.4831 22.8906 59.3372 22.4167 57.7227 22.0312L55.1758 21.4219C52.8216 20.8594 51.1029 20.0781 50.0195 19.0781C48.9466 18.0677 48.4102 16.7552 48.4102 15.1406C48.4102 13.776 48.7539 12.5833 49.4414 11.5625C50.1289 10.5417 51.0924 9.75 52.332 9.1875C53.582 8.625 55.0404 8.34375 56.707 8.34375C59.2174 8.34375 61.2122 9 62.6914 10.3125C64.181 11.625 64.9622 13.4167 65.0352 15.6875H61.6758C61.5924 14.3438 61.1029 13.2917 60.207 12.5312C59.3112 11.7604 58.1289 11.375 56.6602 11.375C55.2539 11.375 54.1029 11.7135 53.207 12.3906C52.3112 13.0573 51.8633 13.9167 51.8633 14.9688C51.8633 15.8125 52.207 16.5 52.8945 17.0312C53.582 17.5521 54.7227 18.0052 56.3164 18.3906L58.832 18.9844C61.1654 19.5365 62.8841 20.3333 63.9883 21.375C65.1029 22.4167 65.6602 23.7708 65.6602 25.4375C65.6602 26.8333 65.3008 28.0521 64.582 29.0938C63.8633 30.1354 62.8529 30.9427 61.5508 31.5156C60.2487 32.0885 58.7174 32.375 56.957 32.375ZM75.7539 32.375C74.181 32.375 72.8008 32.0104 71.6133 31.2812C70.4362 30.5521 69.5195 29.5417 68.8633 28.25C68.207 26.9479 67.8789 25.4583 67.8789 23.7812C67.8789 22.0833 68.207 20.5833 68.8633 19.2812C69.5299 17.9792 70.4518 16.9635 71.6289 16.2344C72.806 15.4948 74.181 15.125 75.7539 15.125C77.0664 15.125 78.2383 15.3854 79.2695 15.9062C80.3112 16.4167 81.1549 17.125 81.8008 18.0312C82.4466 18.9375 82.8372 19.974 82.9727 21.1406H79.6914C79.5247 20.2135 79.1081 19.4531 78.4414 18.8594C77.7747 18.2656 76.8841 17.9688 75.7695 17.9688C74.3424 17.9688 73.2279 18.4948 72.4258 19.5469C71.6237 20.599 71.2227 22.0104 71.2227 23.7812C71.2227 25.5312 71.6237 26.9271 72.4258 27.9688C73.2279 29.0104 74.3424 29.5312 75.7695 29.5312C76.9049 29.5312 77.7799 29.2448 78.3945 28.6719C79.0091 28.0885 79.4258 27.3125 79.6445 26.3438H82.9727C82.8477 27.4896 82.4622 28.5208 81.8164 29.4375C81.1706 30.3438 80.3268 31.0625 79.2852 31.5938C78.2435 32.1146 77.0664 32.375 75.7539 32.375ZM91.0039 32.2656C89.3581 32.2656 87.9935 31.849 86.9102 31.0156C85.8268 30.1719 85.2852 28.9271 85.2852 27.2812C85.2852 26.0312 85.5924 25.0729 86.207 24.4062C86.832 23.7292 87.6393 23.2448 88.6289 22.9531C89.6289 22.6615 90.6862 22.4479 91.8008 22.3125C92.832 22.1875 93.6497 22.0833 94.2539 22C94.8581 21.9167 95.2852 21.7917 95.5352 21.625C95.7956 21.4583 95.9258 21.1719 95.9258 20.7656V20.625C95.9258 19.8229 95.6341 19.1667 95.0508 18.6562C94.4674 18.1354 93.6497 17.875 92.5977 17.875C91.5456 17.875 90.6862 18.1302 90.0195 18.6406C89.3529 19.1406 88.9883 19.7708 88.9258 20.5312H85.6914C85.7643 18.9583 86.4258 17.6719 87.6758 16.6719C88.9258 15.6719 90.582 15.1719 92.6445 15.1719C94.6758 15.1719 96.2747 15.6719 97.4414 16.6719C98.6081 17.6719 99.1914 19.0104 99.1914 20.6875V32H95.9414V29.6562H95.8789C95.5352 30.3229 94.9883 30.9271 94.2383 31.4688C93.4987 32 92.4206 32.2656 91.0039 32.2656ZM91.6758 29.6094C93.1341 29.6094 94.207 29.2344 94.8945 28.4844C95.5924 27.724 95.9414 26.8385 95.9414 25.8281V23.8906C95.7227 24.0677 95.2279 24.2292 94.457 24.375C93.6862 24.5104 92.8633 24.6406 91.9883 24.7656C91.082 24.901 90.2852 25.1562 89.5977 25.5312C88.9102 25.9062 88.5664 26.5104 88.5664 27.3438C88.5664 28.0521 88.8424 28.6094 89.3945 29.0156C89.957 29.4115 90.7174 29.6094 91.6758 29.6094ZM106.207 8.71875V32H102.91V8.71875H106.207ZM117.035 32.375C115.462 32.375 114.082 32.0104 112.895 31.2812C111.707 30.5521 110.78 29.5417 110.113 28.25C109.457 26.9583 109.129 25.4688 109.129 23.7812C109.129 22.0729 109.457 20.5729 110.113 19.2812C110.78 17.9792 111.707 16.9635 112.895 16.2344C114.082 15.4948 115.462 15.125 117.035 15.125C118.608 15.125 119.983 15.4948 121.16 16.2344C122.348 16.9635 123.27 17.9792 123.926 19.2812C124.592 20.5729 124.926 22.0729 124.926 23.7812C124.926 25.4688 124.592 26.9583 123.926 28.25C123.27 29.5417 122.348 30.5521 121.16 31.2812C119.983 32.0104 118.608 32.375 117.035 32.375ZM117.035 29.5312C118.452 29.5312 119.566 29.0104 120.379 27.9688C121.191 26.9271 121.598 25.5312 121.598 23.7812C121.598 22.0104 121.186 20.599 120.363 19.5469C119.551 18.4948 118.441 17.9688 117.035 17.9688C115.629 17.9688 114.514 18.4948 113.691 19.5469C112.879 20.5885 112.473 22 112.473 23.7812C112.473 25.5417 112.879 26.9427 113.691 27.9844C114.504 29.0156 115.618 29.5312 117.035 29.5312ZM127.848 32V15.5H131.004V18.1719H131.066C131.368 17.2656 131.842 16.5625 132.488 16.0625C133.145 15.5521 133.999 15.2969 135.051 15.2969C135.301 15.2969 135.53 15.3073 135.738 15.3281C135.947 15.349 136.118 15.3646 136.254 15.375V18.4531C136.129 18.4219 135.905 18.3906 135.582 18.3594C135.259 18.3177 134.905 18.2969 134.52 18.2969C133.592 18.2969 132.796 18.6198 132.129 19.2656C131.473 19.9115 131.145 20.9062 131.145 22.25V32H127.848ZM143.348 32.2656C141.702 32.2656 140.337 31.849 139.254 31.0156C138.171 30.1719 137.629 28.9271 137.629 27.2812C137.629 26.0312 137.936 25.0729 138.551 24.4062C139.176 23.7292 139.983 23.2448 140.973 22.9531C141.973 22.6615 143.03 22.4479 144.145 22.3125C145.176 22.1875 145.993 22.0833 146.598 22C147.202 21.9167 147.629 21.7917 147.879 21.625C148.139 21.4583 148.27 21.1719 148.27 20.7656V20.625C148.27 19.8229 147.978 19.1667 147.395 18.6562C146.811 18.1354 145.993 17.875 144.941 17.875C143.889 17.875 143.03 18.1302 142.363 18.6406C141.697 19.1406 141.332 19.7708 141.27 20.5312H138.035C138.108 18.9583 138.77 17.6719 140.02 16.6719C141.27 15.6719 142.926 15.1719 144.988 15.1719C147.02 15.1719 148.618 15.6719 149.785 16.6719C150.952 17.6719 151.535 19.0104 151.535 20.6875V32H148.285V29.6562H148.223C147.879 30.3229 147.332 30.9271 146.582 31.4688C145.842 32 144.764 32.2656 143.348 32.2656ZM144.02 29.6094C145.478 29.6094 146.551 29.2344 147.238 28.4844C147.936 27.724 148.285 26.8385 148.285 25.8281V23.8906C148.066 24.0677 147.572 24.2292 146.801 24.375C146.03 24.5104 145.207 24.6406 144.332 24.7656C143.426 24.901 142.629 25.1562 141.941 25.5312C141.254 25.9062 140.91 26.5104 140.91 27.3438C140.91 28.0521 141.186 28.6094 141.738 29.0156C142.301 29.4115 143.061 29.6094 144.02 29.6094Z" fill="white"/>
</svg>
